<?xml version="1.0" standalone="no"?>
<!DOCTYPE svg PUBLIC "-//W3C//DTD SVG 20010904//EN"
 "http://www.w3.org/TR/2001/REC-SVG-20010904/DTD/svg10.dtd">
<svg version="1.0" xmlns="http://www.w3.org/2000/svg"
 width="300.000000pt" height="300.000000pt" viewBox="0 0 300.000000 300.000000"
 preserveAspectRatio="xMidYMid meet">
<metadata>
Created by potrace 1.10, written by Peter Selinger 2001-2011
</metadata>
<g transform="translate(0.000000,300.000000) scale(0.100000,-0.100000)"
fill="#000000" stroke="none">
<path d="M730 2179 c-73 -29 -260 -208 -260 -249 0 -32 -40 -73 -63 -64 -19 7
-107 -71 -107 -95 0 -24 111 -131 136 -131 29 0 94 70 94 102 0 17 10 34 27
48 29 23 53 23 109 0 30 -13 32 -12 94 49 63 62 64 63 51 94 -21 50 -25 95
-10 114 32 38 97 55 193 52 80 -4 91 -2 94 14 3 13 -13 25 -63 48 -91 43 -213
50 -295 18z m164 -28 c3 -5 -14 -16 -39 -25 -53 -21 -105 -76 -105 -113 0 -14
5 -43 12 -65 11 -39 11 -40 -29 -80 l-41 -40 -49 12 c-42 11 -53 10 -80 -3
-34 -18 -73 -66 -73 -89 0 -8 -11 -25 -26 -39 -23 -22 -27 -22 -51 -9 -14 8
-35 27 -46 42 l-21 28 23 24 c13 14 36 28 51 31 35 8 64 38 88 95 31 72 176
201 254 225 49 16 124 19 132 6z"/>
<path d="M1412 2175 c-97 -42 -132 -97 -132 -207 0 -87 -4 -94 -119 -214 l-82
-87 38 -39 c21 -22 51 -49 66 -60 l29 -21 103 103 102 102 69 8 c114 12 183
61 213 149 20 60 6 178 -21 169 -5 -2 -31 -35 -57 -73 -47 -68 -49 -70 -90
-69 -46 1 -81 27 -102 75 -11 28 -9 34 35 98 25 37 46 71 46 74 0 12 -64 7
-98 -8z m8 -50 c0 -3 -9 -24 -21 -46 -25 -50 -15 -89 34 -137 69 -67 124 -69
184 -6 25 25 47 43 50 40 4 -3 1 -25 -6 -48 -23 -76 -97 -127 -186 -128 -51
-1 -107 -35 -185 -114 -41 -42 -79 -76 -85 -76 -6 0 -24 13 -39 29 l-27 29 71
78 c94 104 110 136 110 219 0 73 15 112 56 144 26 20 44 27 44 16z"/>
<path d="M798 1831 c-18 -16 -40 -41 -47 -55 -14 -25 -10 -29 156 -203 93 -98
292 -310 442 -470 316 -339 303 -331 385 -243 25 27 46 58 46 70 0 29 -46 76
-420 429 -184 173 -369 349 -410 391 -119 120 -112 117 -152 81z m184 -166
c74 -71 270 -258 436 -415 167 -157 305 -295 309 -308 6 -27 -15 -62 -50 -81
-31 -17 -41 -10 -147 104 -41 44 -205 219 -365 389 -406 432 -381 403 -359
427 10 11 23 18 30 17 7 -2 72 -61 146 -133z"/>
<path d="M1660 1725 c0 -3 -1 -101 -1 -217 l0 -213 46 -2 46 -2 -3 89 -3 90
88 0 88 0 -3 37 -3 36 -82 -2 -83 -2 0 61 0 62 95 -4 95 -3 0 38 0 37 -140 0
c-77 0 -140 -2 -140 -5z m71 -234 c-18 -33 -31 -25 -31 21 l0 42 21 -21 c17
-17 19 -24 10 -42z"/>
<path d="M1990 1520 c0 -115 -1 -213 -2 -217 -2 -5 19 -9 45 -10 l49 -2 -4 94
-3 95 88 0 87 0 0 -94 0 -94 45 0 45 0 0 219 0 219 -45 0 -45 0 0 -90 0 -90
-87 0 -88 0 3 90 3 90 -45 0 -46 0 0 -210z m310 -5 c0 -50 -10 -57 -33 -22
-13 20 -13 25 1 45 22 34 32 27 32 -23z m-236 12 c8 -13 6 -22 -12 -39 l-22
-22 0 43 c0 44 13 51 34 18z"/>
<path d="M2475 1707 c-59 -33 -85 -91 -85 -188 0 -88 12 -133 49 -173 76 -83
226 -71 279 23 33 59 30 71 -22 71 -38 0 -45 -3 -50 -25 -15 -58 -108 -72
-141 -21 -37 56 -30 202 10 242 45 45 135 21 135 -36 0 -17 7 -20 46 -20 l47
0 -7 33 c-14 73 -76 117 -166 117 -38 0 -67 -7 -95 -23z"/>
<path d="M765 1361 l-150 -148 -62 -12 c-71 -14 -114 -44 -143 -102 -42 -82
-12 -189 64 -234 113 -66 254 3 271 133 11 81 26 104 162 243 73 75 133 140
133 145 0 10 -111 124 -120 124 -3 0 -72 -67 -155 -149z m195 54 l33 -34 -132
-135 c-72 -74 -131 -141 -131 -149 0 -8 -6 -20 -14 -26 -11 -10 -16 -8 -21 8
-3 11 -24 36 -46 54 l-39 34 37 26 c21 15 90 78 153 142 63 63 117 115 120
115 4 0 21 -16 40 -35z m-334 -310 c12 -8 29 -35 38 -61 15 -44 15 -48 -3 -73
-11 -14 -30 -37 -44 -49 -24 -23 -28 -23 -80 -12 -54 12 -54 13 -71 66 l-17
53 38 51 c37 50 39 51 78 45 22 -3 50 -12 61 -20z"/>
</g>
</svg>
