<?xml version="1.0" standalone="no"?>
<!DOCTYPE svg PUBLIC "-//W3C//DTD SVG 20010904//EN"
 "http://www.w3.org/TR/2001/REC-SVG-20010904/DTD/svg10.dtd">
<svg version="1.0" xmlns="http://www.w3.org/2000/svg"
 width="1024.000000pt" height="1024.000000pt" viewBox="0 0 1024.000000 1024.000000"
 preserveAspectRatio="xMidYMid meet">

<g transform="translate(0.000000,1024.000000) scale(0.100000,-0.100000)"
fill="#000000" stroke="none">
<path d="M4041 8654 c-144 -39 -235 -98 -433 -286 -126 -119 -136 -131 -163
-199 -48 -122 -146 -208 -225 -195 -54 8 -74 -2 -162 -84 -116 -107 -116 -105
68 -291 81 -81 157 -150 170 -153 32 -8 66 11 149 87 68 63 69 65 67 110 -1
37 5 55 31 94 82 123 222 127 374 12 29 -21 56 -39 61 -39 5 0 28 -21 53 -47
43 -47 328 -352 626 -669 l152 -161 -237 -235 c-133 -132 -255 -244 -277 -255
-22 -12 -73 -26 -112 -32 -129 -20 -226 -70 -298 -153 -104 -122 -137 -250
-99 -393 31 -121 101 -208 212 -263 73 -36 80 -37 181 -37 99 0 110 2 173 33
133 65 217 193 244 372 8 56 24 120 35 143 19 35 403 441 452 476 16 11 21 11
31 0 83 -90 617 -664 769 -826 l199 -213 47 0 c68 0 138 39 210 116 34 35 67
77 75 92 19 36 25 90 14 123 -7 21 -345 355 -921 909 l-118 114 353 353 c431
431 406 415 633 424 117 5 162 11 202 27 171 66 280 193 330 382 29 113 18
334 -19 356 -13 8 -20 1 -187 -206 l-124 -153 -109 6 c-71 4 -117 11 -132 20
-23 16 -51 81 -82 194 l-17 61 152 183 c83 100 150 187 148 193 -6 16 -142 11
-217 -8 -94 -23 -220 -89 -283 -146 -112 -102 -154 -201 -166 -390 -9 -140
-28 -201 -86 -286 -19 -28 -186 -198 -370 -378 l-335 -328 -98 88 c-53 49
-246 239 -428 422 -241 242 -331 338 -327 351 2 10 -13 43 -36 77 -71 104 -78
197 -21 287 36 57 129 106 217 114 89 8 148 -7 315 -81 37 -16 38 -16 54 8 23
36 11 60 -64 122 -82 68 -201 128 -306 154 -96 24 -263 26 -345 4z m969 -1618
c0 -2 -8 -10 -17 -17 -16 -13 -17 -12 -4 4 13 16 21 21 21 13z m-672 -1016
l62 -69 -12 -75 c-11 -66 -19 -84 -63 -141 l-50 -64 -102 -1 -103 0 -54 83
c-53 80 -54 84 -49 138 5 50 11 63 59 120 52 60 57 64 107 70 138 15 135 16
205 -61z"/>
<path d="M6795 5080 c-227 -49 -426 -202 -534 -410 -94 -180 -126 -345 -118
-609 6 -203 24 -295 86 -426 144 -308 388 -465 746 -482 193 -9 359 34 500
128 136 91 236 229 294 405 18 53 31 98 29 99 -4 4 -162 7 -294 6 l-101 -1
-22 -59 c-59 -163 -243 -259 -443 -231 -149 21 -265 104 -333 239 -59 119 -69
174 -70 381 0 163 3 194 23 263 31 108 62 165 128 236 218 236 625 158 706
-136 l12 -43 199 0 199 0 -7 48 c-9 65 -51 188 -82 242 -96 167 -260 289 -458
341 -119 31 -340 36 -460 9z"/>
<path d="M2630 4125 l0 -935 195 0 195 0 0 365 0 365 380 0 380 0 0 170 0 170
-380 0 -380 0 0 225 0 225 425 0 425 0 0 175 0 175 -620 0 -620 0 0 -935z"/>
<path d="M4200 4125 l0 -935 195 0 195 0 0 395 0 395 420 0 420 0 0 -395 0
-395 195 0 195 0 0 935 0 935 -192 -2 -193 -3 -3 -363 -2 -362 -421 2 -420 3
1 363 0 362 -195 0 -195 0 0 -935z"/>
<path d="M1997 2493 c-53 -148 -97 -272 -97 -276 0 -4 26 -7 59 -7 l58 0 19
53 19 52 101 3 101 3 20 -53 20 -53 62 -3 c33 -2 61 1 61 5 -1 4 -45 127 -98
273 l-98 265 -65 3 -65 3 -97 -268z m199 16 l31 -89 -70 0 c-62 0 -68 2 -62
18 3 9 18 52 33 94 15 42 29 74 32 72 2 -3 19 -46 36 -95z"/>
<path d="M4351 2497 c-52 -144 -96 -268 -99 -275 -3 -10 10 -12 58 -10 l63 3
17 50 17 50 103 0 103 0 17 -50 17 -50 63 -3 c48 -2 62 0 58 10 -2 7 -47 131
-99 275 l-94 263 -65 0 -65 0 -94 -263z m197 11 l31 -88 -69 0 -69 0 32 94
c18 52 35 92 38 88 3 -4 20 -46 37 -94z"/>
<path d="M1510 2480 l0 -270 55 0 55 0 0 105 0 105 115 0 115 0 0 50 0 50
-115 0 -115 0 0 65 0 65 120 0 120 0 0 50 0 50 -175 0 -175 0 0 -270z"/>
<path d="M2520 2480 l0 -270 60 0 61 0 -3 165 c-2 91 -1 165 2 165 3 0 36 -75
74 -165 l70 -165 36 0 c42 0 31 -17 126 200 l64 145 0 -172 0 -173 60 0 60 0
0 270 0 270 -74 0 -73 0 -79 -180 c-43 -98 -82 -176 -85 -172 -3 4 -39 85 -79
180 l-73 172 -74 0 -73 0 0 -270z"/>
<path d="M3270 2480 l0 -270 60 0 59 0 0 270 -1 270 -59 0 -59 0 0 -270z"/>
<path d="M3545 2480 l0 -270 183 0 182 0 0 49 0 50 -125 -2 -125 -2 0 223 0
222 -57 0 -58 0 0 -270z"/>
<path d="M4020 2480 l0 -270 55 0 55 0 0 270 0 270 -55 0 -55 0 0 -270z"/>
<path d="M5110 2480 l0 -270 60 0 60 0 0 110 0 110 115 0 115 0 0 -110 0 -110
55 0 55 0 0 270 0 270 -55 0 -55 0 0 -110 0 -110 -115 0 -115 0 0 110 0 110
-60 0 -60 0 0 -270z"/>
<path d="M5730 2550 c0 -219 5 -244 56 -292 16 -15 47 -35 69 -44 50 -22 157
-22 205 -1 42 19 95 71 109 110 7 17 11 111 11 228 l0 199 -55 0 -55 0 0 -175
c0 -192 -8 -230 -54 -261 -33 -21 -108 -15 -136 11 -32 29 -40 80 -40 258 l0
167 -55 0 -55 0 0 -200z"/>
<path d="M6330 2480 l0 -270 58 0 57 0 -3 172 c-1 94 0 169 2 167 2 -2 36 -80
76 -172 l73 -168 36 3 36 3 71 163 c40 90 73 165 75 167 2 2 4 -73 4 -166 l0
-169 58 0 57 0 0 270 0 270 -74 0 -73 0 -60 -137 c-33 -76 -66 -155 -74 -175
-7 -21 -16 -38 -19 -38 -3 0 -40 78 -81 173 l-76 172 -71 3 -72 3 0 -271z"/>
<path d="M7080 2480 l0 -270 55 0 55 0 0 270 0 270 -55 0 -55 0 0 -270z"/>
<path d="M7350 2480 l0 -270 180 0 180 0 0 51 0 50 -122 -2 -123 -1 -3 221 -2
221 -55 0 -55 0 0 -270z"/>
<path d="M7820 2480 l0 -270 143 0 c116 0 149 4 182 19 86 39 136 118 143 227
8 124 -45 227 -141 273 -38 18 -62 21 -185 21 l-142 0 0 -270z m299 145 c37
-32 65 -112 58 -166 -7 -51 -36 -109 -67 -130 -24 -17 -139 -31 -167 -22 -10
4 -13 47 -13 174 l0 169 79 0 c70 0 83 -3 110 -25z"/>
<path d="M8420 2480 l0 -270 180 0 180 0 0 48 0 48 -117 2 c-65 1 -121 2 -125
2 -5 0 -8 27 -8 60 l0 60 110 0 110 0 0 50 0 50 -110 0 -110 0 0 60 0 60 120
0 120 0 0 50 0 50 -175 0 -175 0 0 -270z"/>
<path d="M2638 1840 c-147 -44 -179 -269 -53 -366 42 -31 114 -42 167 -25 38
13 88 61 106 104 12 27 12 27 -30 27 -34 0 -46 -5 -68 -31 -22 -27 -33 -32
-70 -32 -36 0 -48 5 -66 28 -43 54 -39 152 8 202 38 40 119 27 138 -23 8 -20
16 -24 51 -24 40 0 41 1 35 28 -21 86 -125 140 -218 112z"/>
<path d="M3100 1828 c-24 -13 -58 -40 -74 -61 -29 -36 -31 -44 -31 -121 0 -74
3 -87 27 -122 34 -49 73 -72 132 -80 89 -13 182 48 205 133 32 114 -13 216
-111 258 -52 21 -96 19 -148 -7z m151 -87 c17 -17 30 -41 30 -58 6 -115 -26
-165 -108 -165 -95 0 -137 150 -63 224 40 40 100 40 141 -1z"/>
<path d="M4073 1835 c-70 -30 -90 -121 -38 -175 16 -16 51 -37 79 -46 68 -22
96 -40 96 -64 0 -11 -9 -24 -19 -30 -40 -21 -111 -5 -111 24 0 9 -15 15 -45
18 -52 4 -57 -7 -25 -60 24 -40 73 -62 135 -62 94 0 145 42 145 118 0 36 -6
50 -32 76 -19 19 -57 41 -88 51 -66 21 -80 31 -80 56 0 44 88 50 107 7 7 -17
19 -23 46 -23 32 -1 37 2 37 20 0 12 -10 35 -22 50 -40 51 -120 69 -185 40z"/>
<path d="M5862 1838 c-42 -14 -98 -77 -111 -125 -29 -102 9 -208 89 -251 83
-44 174 -21 228 58 32 47 29 60 -15 60 -29 0 -42 -7 -62 -31 -21 -24 -35 -31
-65 -32 -32 -1 -44 5 -68 32 -28 32 -30 38 -26 104 3 61 7 72 31 93 50 43 120
29 140 -28 5 -13 17 -18 47 -18 44 0 47 5 26 54 -30 72 -131 112 -214 84z"/>
<path d="M6995 1831 c-47 -22 -89 -64 -104 -104 -18 -48 -13 -136 10 -185 51
-105 199 -135 286 -59 121 107 83 315 -65 357 -52 14 -81 12 -127 -9z m145
-89 c74 -75 32 -222 -64 -225 -72 -2 -125 73 -110 157 15 91 113 128 174 68z"/>
<path d="M3520 1645 l0 -195 40 0 39 0 3 122 3 121 80 -121 80 -122 43 0 42 0
0 195 0 195 -40 0 -39 0 -3 -127 -3 -126 -84 126 c-83 126 -84 127 -122 127
l-39 0 0 -195z"/>
<path d="M4400 1805 l0 -35 55 0 55 0 0 -160 0 -160 40 0 40 0 0 160 0 160 55
0 55 0 0 35 0 35 -150 0 -150 0 0 -35z"/>
<path d="M4840 1645 l0 -195 45 0 45 0 0 70 c0 66 1 70 23 70 17 0 31 -16 62
-70 l40 -70 48 0 c36 0 46 3 41 13 -4 6 -26 41 -47 76 -36 56 -38 64 -23 73
81 45 83 159 4 208 -27 17 -50 20 -135 20 l-103 0 0 -195z m188 109 c12 -8 22
-26 22 -39 0 -36 -26 -55 -76 -55 l-44 0 0 55 0 55 38 0 c21 0 48 -7 60 -16z"/>
<path d="M5280 1691 c0 -137 2 -151 23 -182 33 -49 80 -71 145 -66 56 4 91 24
126 71 18 24 21 45 25 177 l3 149 -40 0 -40 0 -4 -140 c-3 -127 -5 -141 -24
-161 -30 -29 -92 -29 -116 1 -15 19 -18 43 -18 161 l0 139 -40 0 -40 0 0 -149z"/>
<path d="M6210 1805 l0 -35 55 0 55 0 0 -160 0 -160 45 0 45 0 0 160 0 160 50
0 50 0 0 35 0 35 -150 0 -150 0 0 -35z"/>
<path d="M6650 1645 l0 -195 40 0 40 0 0 195 0 195 -40 0 -40 0 0 -195z"/>
<path d="M7400 1645 l0 -195 40 0 39 0 3 123 3 122 83 -122 82 -123 43 0 42 0
0 195 0 195 -42 0 -43 0 0 -127 0 -128 -85 128 -85 127 -40 0 -40 0 0 -195z"/>
</g>
</svg>
